Coordinates
version=1
nRows=29
nColumns=24
inDegrees=yes

Units are S.I. units (second, meters, Newtons, ...)
Angles are in degrees.

endheader
time	pelvis_tilt	pelvis_list	pelvis_rotation	pelvis_tx	pelvis_ty	pelvis_tz	hip_flexion_r	hip_adduction_r	hip_rotation_r	knee_angle_r	ankle_angle_r	subtalar_angle_r	mtp_angle_r	hip_flexion_l	hip_adduction_l	hip_rotation_l	knee_angle_l	ankle_angle_l	subtalar_angle_l	mtp_angle_l	lumbar_extension	lumbar_bending	lumbar_rotation
      0.95850000	     -6.02156071	     -3.56146521	     -3.58026083	     -0.30594975	      0.99677797	      0.31427867	      8.12900047	     11.95912521	      2.68499779	     -5.26245464	     -9.14475049	      3.43199790	    -44.45309194	     16.25905287	     -6.79969130	     -3.77816846	    -57.79077449	    -23.85122503	    -13.38455365	     -4.15360733	     21.27185937	      5.03784085	      3.58800794
      0.96266667	     -5.99292744	     -3.41370680	     -3.65946878	     -0.30106473	      0.99741841	      0.31475549	      7.56654167	     11.80628975	      2.91221713	     -4.88187933	     -9.08573699	      3.50021857	    -44.47973194	     16.86442857	     -6.57626264	     -3.53174195	    -57.65273392	    -23.44744461	    -13.66997676	     -4.21325171	     21.23787369	      4.83603175	      3.76916691
      0.96683333	     -5.92779622	     -3.22791367	     -3.84107548	     -0.29624909	      0.99812559	      0.31525101	      7.00214806	     11.60386384	      3.05573226	     -4.57075161	     -9.01295331	      3.57185298	    -44.54061328	     17.38413374	     -6.31366240	     -3.44085415	    -57.51423847	    -22.65061774	    -14.21975982	     -4.35363877	     21.13253591	      4.73952171	      4.07787422
      0.97100000	     -5.91557546	     -3.08199928	     -3.92741638	     -0.29145657	      0.99866774	      0.31570984	      6.46700687	     11.44901708	      3.27860330	     -4.19043097	     -8.95865983	      3.62708886	    -44.56801984	     17.98708901	     -6.08995291	     -3.20203746	    -57.28617557	    -22.28353769	    -14.48812885	     -4.41991792	     21.11086167	      4.55109403	      4.25747125
      0.97516667	     -5.90153951	     -2.92156226	     -4.04364243	     -0.28666244	      0.99919869	      0.31615184	      5.93878745	     11.27298404	      3.48181626	     -3.82782354	     -8.90183318	      3.66718810	    -44.59985168	     18.56267155	     -5.84956303	     -3.02017797	    -57.03733652	    -21.73553298	    -14.87360633	     -4.49746844	     21.10130196	      4.37633241	      4.46385313
      0.97933333	     -5.88665872	     -2.75512989	     -4.18579496	     -0.28191767	      0.99969323	      0.31661906	      5.42281133	     11.09033987	      3.66256082	     -3.48283910	     -8.84584005	      3.70147347	    -44.63738358	     19.12026798	     -5.61012242	     -2.88744623	    -56.75094322	    -21.17276495	    -15.28084115	     -4.59296831	     21.06121527	      4.24328462	      4.69144627
      0.98350000	     -5.85027570	     -2.58365325	     -4.40005676	     -0.27725023	      1.00020195	      0.31715978	      4.91030025	     10.90323289	      3.82202672	     -3.19310983	     -8.78878416	      3.73018524	    -44.71626158	     19.62156724	     -5.38463732	     -2.83577764	    -56.41051674	    -20.51367385	    -15.81160662	     -4.80496656	     20.95301666	      4.18978890	      5.07214120
      0.98766667	     -5.88014850	     -2.44266460	     -4.48350712	     -0.27255527	      1.00051798	      0.31758072	      4.43528939	     10.74903210	      4.03005642	     -2.82009589	     -8.73251017	      3.76047702	    -44.74840479	     20.22484901	     -5.16919530	     -2.61898847	    -56.00866823	    -20.21017626	    -16.04637141	     -4.89517860	     20.97283769	      4.02600866	      5.25389595
      0.99183333	     -5.90230555	     -2.29521705	     -4.60642475	     -0.26785845	      1.00082679	      0.31801120	      3.96154359	     10.58340105	      4.22180457	     -2.47131659	     -8.67754705	      3.77281799	    -44.78614434	     20.78956512	     -4.95432527	     -2.46509604	    -55.57541436	    -19.74953902	    -16.39506023	     -5.00242228	     20.99932845	      3.88164209	      5.46001704
      0.99600000	     -5.92979556	     -2.15099508	     -4.74162052	     -0.26322734	      1.00107718	      0.31846888	      3.50683600	     10.42435128	      4.41006192	     -2.13793169	     -8.62152279	      3.77821062	    -44.82718819	     21.35039733	     -4.75154436	     -2.32794978	    -55.10607109	    -19.29324112	    -16.75881793	     -5.12301677	     21.00869957	      3.76325925	      5.67598482
      1.00016667	     -5.96747531	     -2.01326772	     -4.87722743	     -0.25860739	      1.00127164	      0.31887381	      3.06563414	     10.26538464	      4.59187572	     -1.80959863	     -8.56476083	      3.77649797	    -44.86764948	     21.90696864	     -4.55458231	     -2.19408137	    -54.58576349	    -18.88096372	    -17.10080958	     -5.24592837	     21.02318993	      3.65661867	      5.88662307
      1.00433333	     -6.01451029	     -1.88334230	     -5.01165039	     -0.25400532	      1.00141239	      0.31931176	      2.63699538	     10.11995362	      4.77468938	     -1.48348813	     -8.50582759	      3.76879050	    -44.91221234	     22.46177012	     -4.37528107	     -2.07091805	    -54.02656520	    -18.48269125	    -17.45272985	     -5.38513121	     21.05285433	      3.55760135	      6.11057520
      1.00850000	     -6.04140648	     -1.73774359	     -5.24295340	     -0.24946898	      1.00156510	      0.31986031	      2.21590830	      9.95718747	      4.96482126	     -1.21379088	     -8.44119423	      3.71708091	    -45.02189808	     22.95619043	     -4.21421787	     -2.09099975	    -53.41844741	    -18.01786257	    -18.00287419	     -5.73654537	     21.00653909	      3.52022790	      6.54326175
      1.01266667	     -6.12040812	     -1.64777092	     -5.30517572	     -0.24489096	      1.00152731	      0.32014601	      1.81012226	      9.84680238	      5.14451491	     -0.85580940	     -8.37885138	      3.72647268	    -45.05739627	     23.54184828	     -4.05671309	     -1.86518311	    -52.77372757	    -17.82309276	    -18.17055650	     -5.85407767	     21.06936570	      3.44992863	      6.68048357
      1.01683333	     -6.19046020	     -1.53954694	     -5.41185283	     -0.24029444	      1.00148524	      0.32048990	      1.40630028	      9.71736355	      5.29901003	     -0.52471866	     -8.30854026	      3.70263845	    -45.09701752	     24.08246229	     -3.89889128	     -1.72179426	    -52.08439009	    -17.52317854	    -18.44035391	     -5.98644374	     21.15022865	      3.35770242	      6.83655800
      1.02100000	     -6.27273084	     -1.44495399	     -5.52761490	     -0.23573787	      1.00137907	      0.32083955	      1.02361760	      9.60358416	      5.46049602	     -0.20716119	     -8.23747989	      3.67424246	    -45.14079988	     24.62522396	     -3.76446572	     -1.59988288	    -51.36350627	    -17.23273590	    -18.74111454	     -6.13473418	     21.21552815	      3.29269551	      7.00046981
      1.02516667	     -6.30241592	     -1.32112231	     -5.77955000	     -0.23119632	      1.00136922	      0.32148391	      0.59476334	      9.46339423	      5.75940183	      0.06928375	     -8.13535283	      3.53439084	    -45.68721734	     25.05045035	     -3.67097500	     -1.70486912	    -50.48955272	    -17.38496247	    -19.46066640	     -7.98137692	     21.15824231	      3.40476311	      8.14429644
      1.02933333	     -6.40304237	     -1.25995698	     -5.83949036	     -0.22665375	      1.00111309	      0.32168119	      0.22575447	      9.37610549	      5.88145781	      0.40841430	     -8.08162505	      3.56768643	    -45.72368303	     25.60152642	     -3.55248668	     -1.51063233	    -49.73683285	    -16.98725209	    -19.59652485	     -8.10291033	     21.25333333	      3.35547534	      8.10104082
      1.03350000	     -6.49946659	     -1.19557651	     -5.93412118	     -0.22211704	      1.00083632	      0.32196669	     -0.13623320	      9.29115386	      5.97485365	      0.71581913	     -8.00539636	      3.55113115	    -45.76562894	     26.11863242	     -3.45557854	     -1.37194765	    -48.91699063	    -16.69018910	    -19.77020631	     -8.24832525	     21.34205732	      3.28914525	      8.09152934
      1.03766667	     -6.60509608	     -1.13997732	     -6.01880599	     -0.21756584	      1.00048996	      0.32221535	     -0.49359717	      9.21321190	      6.08800418	      1.02941904	     -7.92755608	      3.52875649	    -45.80750088	     26.63339211	     -3.36692162	     -1.24259169	    -48.05287024	    -16.47118721	    -19.96712089	     -8.39665004	     21.43439838	      3.24824921	      8.11112546
      1.04183333	     -6.67295497	     -1.06747120	     -6.22292186	     -0.21308165	      1.00021644	      0.32270263	     -0.88181039	      9.11662585	      6.38055887	      1.31549461	     -7.84447232	      3.41842569	    -46.14125243	     27.06522144	     -3.32336158	     -1.33660368	    -47.08858626	    -16.53560951	    -20.70612875	     -9.56851476	     21.44642042	      3.28326430	      8.27788875
      1.04600000	     -6.81266717	     -1.02032836	     -6.24729955	     -0.20845334	      0.99970502	      0.32287431	     -1.19753893	      9.05704415	      6.29171892	      1.62101509	     -7.78067659	      3.39225847	    -46.30255442	     27.58737782	     -3.23184642	     -1.11877995	    -46.15564576	    -16.28950773	    -20.55125223	    -10.13011768	     21.58742773	      3.09588281	      8.40343998
      1.05016667	     -6.91987142	     -1.01603121	     -6.29029917	     -0.20394488	      0.99920165	      0.32297240	     -1.56193351	      9.02283789	      6.43084961	      1.95525346	     -7.71202842	      3.41374138	    -46.33810202	     28.07425766	     -3.18067964	     -0.95377236	    -45.20948104	    -16.12674108	    -20.69088120	    -10.26047463	     21.67178733	      3.23604960	      8.40294532
      1.05433333	     -7.03304510	     -0.99282637	     -6.37047896	     -0.19943984	      0.99865739	      0.32316888	     -1.89994434	      8.97454261	      6.51244865	      2.23719675	     -7.63862473	      3.38820572	    -46.37231167	     28.53381373	     -3.13957291	     -0.83082491	    -44.19631356	    -16.00131003	    -20.83812145	    -10.38809324	     21.77802154	      3.22981242	      8.44136759
      1.05850000	     -7.11621148	     -0.94420765	     -6.54820584	     -0.19487573	      0.99817144	      0.32364327	     -2.28039610	      8.90480821	      6.74902049	      2.53795255	     -7.56659655	      3.27054339	    -46.66507833	     28.91920900	     -3.14130898	     -0.97005928	    -43.06976529	    -16.30780131	    -21.45605848	    -11.45608107	     21.81901219	      3.26774539	      8.70344586
      1.06266667	     -7.24790099	     -0.95121036	     -6.54379578	     -0.19029050	      0.99747272	      0.32367137	     -2.62165448	      8.88754088	      6.77734577	      2.86983071	     -7.49792660	      3.27949337	    -46.70008026	     29.38665665	     -3.09675943	     -0.78553938	    -42.03708433	    -16.09844904	    -21.43582360	    -11.58355587	     21.93815205	      3.27868933	      8.72890617
      1.06683333	     -7.37537872	     -0.95726496	     -6.59501326	     -0.18575183	      0.99675693	      0.32380741	     -2.94490141	      8.87196844	      6.79688898	      3.15229456	     -7.43260550	      3.27187780	    -46.73304541	     29.82157120	     -3.08581519	     -0.67240621	    -40.95039617	    -15.97000635	    -21.44683724	    -11.70638856	     22.05225973	      3.31219342	      8.74713037
      1.07100000	     -7.50402978	     -0.96692669	     -6.64528556	     -0.18120880	      0.99600159	      0.32394887	     -3.26965386	      8.86069319	      6.83063765	      3.44390812	     -7.36573232	      3.26289373	    -46.76603856	     30.24154224	     -3.08547211	     -0.58941452	    -39.82408334	    -15.89535472	    -21.47183195	    -11.83061088	     22.16708041	      3.35120629	      8.76904998
      1.07516667	     -7.63757713	     -0.98359603	     -6.69437283	     -0.17663232	      0.99519204	      0.32409026	     -3.59284194	      8.85736718	      6.87045335	      3.73458438	     -7.29659889	      3.25114919	    -46.80020436	     30.65045431	     -3.09706061	     -0.53248847	    -38.66989718	    -15.85929806	    -21.49636249	    -11.95977726	     22.28897138	      3.39635823	      8.79443702
